<?xml version="1.0" standalone="no"?>
<!DOCTYPE svg PUBLIC "-//W3C//DTD SVG 20010904//EN"
 "http://www.w3.org/TR/2001/REC-SVG-20010904/DTD/svg10.dtd">
<svg version="1.0" xmlns="http://www.w3.org/2000/svg"
 width="1053.000000pt" height="390.000000pt" viewBox="0 0 1053.000000 390.000000"
 preserveAspectRatio="xMidYMid meet">

<g transform="translate(0.000000,390.000000) scale(0.100000,-0.100000)"
fill="#000000" stroke="none">
<path d="M4300 2991 c-38 -5 -45 -8 -23 -9 18 -1 56 -11 85 -21 29 -11 62 -22
73 -24 11 -3 -2 -6 -30 -7 -35 -2 -20 -5 50 -10 55 -4 129 -15 165 -25 67 -17
181 -70 232 -108 16 -12 42 -22 58 -23 38 -2 60 -11 60 -24 0 -15 -36 -12 -50
5 -7 9 -15 13 -18 10 -3 -3 3 -13 14 -23 18 -17 22 -18 67 -3 26 8 47 19 47
25 0 29 -140 129 -240 171 -140 59 -340 86 -490 66z"/>
<path d="M4208 2973 c7 -3 16 -2 19 1 4 3 -2 6 -13 5 -11 0 -14 -3 -6 -6z"/>
<path d="M4317 2720 c-91 -23 -153 -73 -167 -136 -11 -46 -8 -50 37 -69 48
-20 102 -19 209 5 61 13 122 19 194 18 l105 -1 -130 -8 c-71 -4 -157 -14 -190
-23 -76 -19 -146 -20 -190 -2 -19 8 -35 11 -35 6 0 -17 61 -69 109 -92 67 -33
214 -38 291 -9 52 20 120 67 120 85 0 4 6 13 13 21 41 40 -25 146 -115 185
-59 25 -188 36 -251 20z m103 -54 c0 -7 -7 -19 -15 -26 -8 -7 -13 -15 -11 -19
6 -10 -6 -26 -27 -37 -14 -8 -10 -10 18 -11 23 -1 38 4 42 13 6 17 40 18 46 2
3 -8 6 -5 6 6 1 12 6 16 16 12 11 -4 15 1 15 19 0 30 11 32 35 5 10 -11 25
-20 33 -20 8 0 12 -6 9 -14 -4 -10 7 -16 41 -22 42 -7 34 -9 -68 -15 -75 -4
-137 -14 -177 -28 -34 -12 -83 -21 -108 -21 -48 0 -134 36 -119 49 22 19 87
54 80 43 -8 -14 9 -15 67 -6 20 4 37 12 37 20 0 12 58 64 73 64 4 0 7 -6 7
-14z"/>
<path d="M3640 2556 c0 -14 -7 -32 -16 -40 -14 -15 -10 -16 43 -16 l59 0 -4
40 c-4 39 -5 40 -43 40 -35 0 -39 -3 -39 -24z"/>
<path d="M4572 1193 c1 -101 5 -89 10 30 2 37 0 67 -4 67 -5 0 -7 -44 -6 -97z"/>
<path d="M3760 1270 c0 -5 5 -10 10 -10 6 0 10 5 10 10 0 6 -4 10 -10 10 -5 0
-10 -4 -10 -10z"/>
<path d="M4951 1234 c0 -11 3 -14 6 -6 3 7 2 16 -1 19 -3 4 -6 -2 -5 -13z"/>
<path d="M3760 1165 c0 -37 4 -65 10 -65 6 0 10 28 10 65 0 37 -4 65 -10 65
-6 0 -10 -28 -10 -65z"/>
<path d="M4403 1165 c0 -38 2 -53 4 -32 2 20 2 52 0 70 -2 17 -4 1 -4 -38z"/>
<path d="M5251 1178 c1 -55 5 -50 11 15 2 20 0 37 -4 37 -4 0 -7 -24 -7 -52z"/>
<path d="M5391 1183 c1 -53 6 -49 11 10 2 20 0 37 -4 37 -4 0 -8 -21 -7 -47z"/>
<path d="M7310 1219 c0 -5 5 -7 10 -4 6 3 10 8 10 11 0 2 -4 4 -10 4 -5 0 -10
-5 -10 -11z"/>
<path d="M2783 1185 c0 -22 2 -30 4 -17 2 12 2 30 0 40 -3 9 -5 -1 -4 -23z"/>
<path d="M6427 1213 c-10 -10 -8 -23 4 -23 5 0 8 4 5 9 -4 5 0 12 6 14 7 3 8
6 2 6 -6 1 -14 -2 -17 -6z"/>
<path d="M3543 1165 c0 -27 2 -38 4 -22 2 15 2 37 0 50 -2 12 -4 0 -4 -28z"/>
<path d="M6081 1184 c0 -11 3 -14 6 -6 3 7 2 16 -1 19 -3 4 -6 -2 -5 -13z"/>
<path d="M6580 1189 c0 -5 5 -7 10 -4 6 3 10 8 10 11 0 2 -4 4 -10 4 -5 0 -10
-5 -10 -11z"/>
<path d="M6898 1150 c-1 -28 0 -50 5 -50 4 0 7 23 7 50 0 65 -7 65 -12 0z"/>
<path d="M7705 1190 c-3 -5 -1 -10 4 -10 6 0 11 5 11 10 0 6 -2 10 -4 10 -3 0
-8 -4 -11 -10z"/>
<path d="M3372 1165 c0 -16 2 -22 5 -12 2 9 2 23 0 30 -3 6 -5 -1 -5 -18z"/>
<path d="M3922 1165 c0 -16 2 -22 5 -12 2 9 2 23 0 30 -3 6 -5 -1 -5 -18z"/>
<path d="M3190 1165 c0 -8 5 -15 10 -15 6 0 10 7 10 15 0 8 -4 15 -10 15 -5 0
-10 -7 -10 -15z"/>
<path d="M6743 1140 c0 -25 2 -35 4 -22 2 12 2 32 0 45 -2 12 -4 2 -4 -23z"/>
<path d="M7313 1140 c0 -25 2 -35 4 -22 2 12 2 32 0 45 -2 12 -4 2 -4 -23z"/>
<path d="M4220 1139 c0 -5 5 -7 10 -4 6 3 10 8 10 11 0 2 -4 4 -10 4 -5 0 -10
-5 -10 -11z"/>
<path d="M4951 1134 c0 -11 3 -14 6 -6 3 7 2 16 -1 19 -3 4 -6 -2 -5 -13z"/>
<path d="M6420 1131 c0 -6 4 -13 10 -16 6 -3 7 1 4 9 -7 18 -14 21 -14 7z"/>
<path d="M3192 1070 c1 -16 5 -30 8 -30 4 0 7 14 7 30 0 17 -4 30 -9 30 -4 0
-7 -13 -6 -30z"/>
<path d="M5395 1090 c3 -5 8 -10 11 -10 2 0 4 5 4 10 0 6 -5 10 -11 10 -5 0
-7 -4 -4 -10z"/>
<path d="M9435 810 c-3 -5 -1 -10 4 -10 6 0 11 5 11 10 0 6 -2 10 -4 10 -3 0
-8 -4 -11 -10z"/>
</g>
</svg>
