<?xml version="1.0" standalone="no"?>
<!DOCTYPE svg PUBLIC "-//W3C//DTD SVG 20010904//EN"
 "http://www.w3.org/TR/2001/REC-SVG-20010904/DTD/svg10.dtd">
<svg version="1.0" xmlns="http://www.w3.org/2000/svg"
 width="1504.000000pt" height="882.000000pt" viewBox="0 0 1504.000000 882.000000"
 preserveAspectRatio="xMidYMid meet">

<g transform="translate(0.000000,882.000000) scale(0.100000,-0.100000)"
fill="#000000" stroke="none">
<path d="M6155 6771 c-16 -5 -25 -9 -19 -10 6 0 22 -11 36 -24 14 -13 47 -33
74 -44 27 -12 49 -27 49 -35 0 -7 8 -14 18 -16 9 -2 17 1 17 6 0 6 9 8 21 5
16 -4 17 -8 7 -14 -10 -7 -9 -9 4 -9 9 0 21 -7 26 -16 5 -9 12 -15 15 -15 4 1
8 1 10 0 1 0 11 -2 22 -4 110 -17 278 -95 354 -162 20 -18 39 -33 43 -33 5 0
27 -18 49 -40 39 -38 52 -45 73 -41 5 1 4 -5 -4 -13 -10 -13 -10 -16 3 -16 19
0 40 -33 29 -46 -4 -5 1 -2 11 5 17 13 24 4 10 -15 -5 -5 1 0 11 11 l19 20 -6
-22 c-3 -13 -1 -26 4 -29 5 -3 9 -2 8 3 -1 4 -1 15 0 22 1 12 4 12 13 3 7 -7
18 -12 26 -12 8 0 23 -11 34 -25 19 -24 20 -24 46 -7 14 9 29 16 32 15 15 -5
-3 34 -46 99 -58 87 -185 222 -269 285 -80 60 -195 117 -302 149 -75 23 -111
27 -238 30 -82 1 -163 -1 -180 -5z"/>
<path d="M6248 6168 c-171 -22 -316 -177 -326 -349 -4 -59 -1 -68 22 -96 36
-43 102 -73 159 -73 29 0 82 13 141 35 157 59 261 74 394 59 91 -11 56 -22
-52 -17 -124 7 -195 -5 -321 -54 -120 -46 -196 -53 -254 -23 -24 12 -54 32
-67 46 l-24 23 6 -27 c25 -102 113 -210 211 -259 53 -26 67 -28 168 -28 104 0
114 2 176 32 169 83 257 284 200 454 -65 196 -232 303 -433 277z m57 -127 c-3
-16 -2 -32 4 -35 5 -4 -1 -17 -16 -32 -18 -18 -23 -31 -19 -50 4 -14 2 -24 -4
-24 -7 0 -7 -6 0 -20 9 -16 8 -20 -6 -20 -9 0 -23 -8 -30 -17 -17 -23 -18 -39
0 -24 9 8 21 8 45 0 18 -6 33 -10 34 -8 2 2 10 21 20 42 19 42 32 41 53 -7
l13 -31 1 43 c0 43 7 51 28 30 9 -9 12 2 12 53 l1 64 48 -54 c26 -30 52 -52
57 -49 5 3 9 -7 10 -23 1 -18 -3 -26 -10 -22 -6 4 -2 -3 8 -16 11 -12 25 -20
31 -17 7 2 29 -4 51 -13 l39 -18 -130 -5 c-134 -5 -288 -35 -250 -48 25 -9
-142 -70 -190 -70 -50 0 -107 26 -144 66 -33 34 -33 35 -15 57 46 56 108 116
115 111 4 -2 15 6 23 18 l16 22 0 -22 c0 -12 -6 -22 -12 -22 -7 0 -23 -10 -34
-23 l-21 -22 53 -1 c37 0 54 4 54 13 0 6 16 15 35 19 33 6 35 8 21 23 -14 16
-10 23 44 82 32 35 59 67 60 72 0 4 3 7 6 7 3 0 3 -13 -1 -29z"/>
<path d="M5243 5833 c-30 -4 -32 -8 -38 -51 -4 -26 -11 -64 -15 -84 -9 -44 -3
-48 76 -48 l54 0 0 89 c0 72 -3 90 -16 95 -9 3 -19 5 -22 4 -4 0 -21 -3 -39
-5z"/>
</g>
</svg>
